<?xml version="1.0" encoding="utf-8"?>
<!-- Uploaded to: SVG Repo, www.svgrepo.com, Generator: SVG Repo Mixer Tools -->
<svg width="800px" height="800px" viewBox="0 -5.67 68.693 68.693" xmlns="http://www.w3.org/2000/svg">
  <g id="snowing" transform="translate(-67.722 -249.955)">
    <path id="Path_63" data-name="Path 63" d="M93.517,289.736a.577.577,0,0,0-.086-.313l-.745-1.3a.642.642,0,0,0-.555-.307.586.586,0,0,0-.322.089l-1.914,1.1.393-1.469a.547.547,0,0,0,.023-.165.629.629,0,0,0-.475-.612l-1.439-.394a1.078,1.078,0,0,0-.17-.017.624.624,0,0,0-.6.474l-1.111,4.143-2.78,1.6v-3.021l3.031-3.03a.626.626,0,0,0,0-.9l-1.054-1.046a.6.6,0,0,0-.444-.193.626.626,0,0,0-.457.193l-1.076,1.076V283.23a.633.633,0,0,0-.632-.632H81.609a.638.638,0,0,0-.637.632v2.411L79.9,284.565a.626.626,0,0,0-.447-.193.676.676,0,0,0-.467.193l-1.041,1.054a.6.6,0,0,0-.182.444.648.648,0,0,0,.175.452l3.025,3.03v3.021l-2.6-1.51-1.1-4.145a.632.632,0,0,0-.622-.462.685.685,0,0,0-.193.022l-1.411.381a.639.639,0,0,0-.467.617.491.491,0,0,0,.03.178l.391,1.459L72.89,287.9a.633.633,0,0,0-.866.242l-.743,1.281a.591.591,0,0,0-.081.313.626.626,0,0,0,.314.553l2.09,1.2-1.476.394a.655.655,0,0,0-.479.614.571.571,0,0,0,.03.188l.379,1.416a.645.645,0,0,0,.609.473,1.337,1.337,0,0,0,.157-.016l4.158-1.114,2.609,1.51-2.609,1.505-4.145-1.106a.943.943,0,0,0-.17-.023.643.643,0,0,0-.609.475l-.386,1.436a1.388,1.388,0,0,0-.018.165.641.641,0,0,0,.469.617l1.481.391-2.09,1.2a.633.633,0,0,0-.314.551.555.555,0,0,0,.081.317l.743,1.29a.635.635,0,0,0,.549.32.7.7,0,0,0,.309-.072l2.1-1.216-.4,1.468a.634.634,0,0,0-.02.17.644.644,0,0,0,.467.617l1.452.386a.569.569,0,0,0,.152.015.65.65,0,0,0,.622-.462l1.1-4.143,2.6-1.515v3.206l-3.018,3.033a.643.643,0,0,0-.007.889l1.053,1.061a.693.693,0,0,0,.462.19.632.632,0,0,0,.44-.19l1.07-1.074.008,2.226a.627.627,0,0,0,.637.624H83.1a.627.627,0,0,0,.632-.624v-2.231l1.081,1.079a.64.64,0,0,0,.452.19.662.662,0,0,0,.444-.185l1.054-1.061a.625.625,0,0,0,.193-.444.645.645,0,0,0-.193-.457l-3.031-3.026v-3.206l2.78,1.6,1.111,4.142a.634.634,0,0,0,.6.47.975.975,0,0,0,.152-.018l1.465-.383a.639.639,0,0,0,.467-.617.386.386,0,0,0-.023-.152l-.393-1.485,1.921,1.109a.7.7,0,0,0,.315.084.647.647,0,0,0,.555-.31l.745-1.3a.612.612,0,0,0,.086-.317.641.641,0,0,0-.315-.551l-1.924-1.109,1.467-.393a.641.641,0,0,0,.475-.615.594.594,0,0,0-.018-.157l-.393-1.445a.625.625,0,0,0-.615-.474.608.608,0,0,0-.18.028l-4.125,1.1-2.774-1.6,2.774-1.6,4.143,1.112a.718.718,0,0,0,.162.018.646.646,0,0,0,.615-.467l.393-1.447a.781.781,0,0,0,.018-.152.634.634,0,0,0-.467-.62l-1.475-.4,1.924-1.109A.613.613,0,0,0,93.517,289.736Z" fill="#27b7ff"/>
    <path id="Path_64" data-name="Path 64" d="M127.939,298.511l1.47-.393a.636.636,0,0,0,.475-.615.752.752,0,0,0-.018-.157l-.389-1.445a.633.633,0,0,0-.8-.446l-4.115,1.1-2.779-1.6,2.779-1.6,4.138,1.112a.725.725,0,0,0,.165.018.657.657,0,0,0,.611-.467l.389-1.447a1.116,1.116,0,0,0,.018-.152.642.642,0,0,0-.47-.62l-1.475-.4,1.927-1.109a.633.633,0,0,0,.322-.553.682.682,0,0,0-.088-.313l-.749-1.3a.647.647,0,0,0-.546-.307.64.64,0,0,0-.338.089l-1.908,1.1.4-1.469a.989.989,0,0,0,.018-.165.631.631,0,0,0-.48-.612l-1.434-.394a1.033,1.033,0,0,0-.163-.017.638.638,0,0,0-.616.474l-1.107,4.143-2.772,1.6v-3.021l3.031-3.03a.637.637,0,0,0,0-.9l-1.054-1.046a.628.628,0,0,0-.906,0l-1.071,1.076V283.23a.634.634,0,0,0-.637-.632h-1.495a.627.627,0,0,0-.625.632v2.411l-1.088-1.076a.605.605,0,0,0-.445-.193.63.63,0,0,0-.451.193l-1.059,1.054a.629.629,0,0,0-.183.444.657.657,0,0,0,.183.452l3.039,3.03v3.021l-2.618-1.51-1.107-4.145a.634.634,0,0,0-.608-.462.717.717,0,0,0-.2.022l-1.406.381a.645.645,0,0,0-.48.617.542.542,0,0,0,.031.178l.391,1.459-2.089-1.206a.59.59,0,0,0-.315-.083.618.618,0,0,0-.549.325l-.751,1.281a.566.566,0,0,0-.073.313.607.607,0,0,0,.309.553l2.089,1.2-1.477.394a.64.64,0,0,0-.467.614.594.594,0,0,0,.023.188l.381,1.416a.65.65,0,0,0,.627.473,1.408,1.408,0,0,0,.144-.016l4.151-1.114,2.617,1.51-2.617,1.505-4.138-1.106a.963.963,0,0,0-.157-.023.639.639,0,0,0-.627.475l-.381,1.436a.376.376,0,0,0-.023.165.642.642,0,0,0,.467.617l1.477.391-2.089,1.2a.624.624,0,0,0-.309.551.523.523,0,0,0,.078.317l.746,1.29a.635.635,0,0,0,.549.32.72.72,0,0,0,.315-.072l2.089-1.216-.4,1.468a.849.849,0,0,0-.026.17.65.65,0,0,0,.48.617l1.429.386a.764.764,0,0,0,.175.015.644.644,0,0,0,.614-.462l1.107-4.143,2.618-1.515v3.206l-3.039,3.033a.645.645,0,0,0-.183.45.623.623,0,0,0,.183.439l1.059,1.061a.665.665,0,0,0,.451.19.638.638,0,0,0,.445-.19l1.084-1.074v2.226a.623.623,0,0,0,.629.624h1.495a.633.633,0,0,0,.637-.624v-2.231l1.071,1.079a.673.673,0,0,0,.455.19.663.663,0,0,0,.446-.185l1.059-1.061a.628.628,0,0,0,0-.9l-3.026-3.026v-3.206l2.772,1.6,1.107,4.142a.646.646,0,0,0,.622.47,1.257,1.257,0,0,0,.144-.018l1.457-.383a.647.647,0,0,0,.47-.617,1.1,1.1,0,0,0-.018-.152l-.4-1.485,1.926,1.109a.654.654,0,0,0,.32.084.636.636,0,0,0,.541-.31l.754-1.3a.73.73,0,0,0,.088-.317.648.648,0,0,0-.322-.551Z" fill="#27b7ff"/>
    <path id="Path_65" data-name="Path 65" d="M104.96,292.493H96.578v-.074a3.987,3.987,0,0,1,.3-2.683,3.951,3.951,0,0,0-.538-2l-.743-1.287a4.04,4.04,0,0,0-3.186-1.988,3.974,3.974,0,0,0-1.736-.949l-1.4-.376a1.952,1.952,0,0,0-.3-.076l-.889-.884a4.1,4.1,0,0,0-1.518-.941A4.025,4.025,0,0,0,83.1,279.24H81.6a4,4,0,0,0-3.445,1.982,3.949,3.949,0,0,0-1.569,1.005l-.989,1a.336.336,0,0,0-.112.028l-1.328.348a4.087,4.087,0,0,0-1.586.853h0a3.992,3.992,0,0,0-3.47,2.027l-.211.371a10.417,10.417,0,0,1,8.689-15.189l1.114-.061.432-1.028a13.159,13.159,0,0,1,9.006-7.651l.962-.215.309-.938a17.388,17.388,0,0,1,33.69,3.156l.187,1.386,1.4.142a13.035,13.035,0,0,1,8.491,21.581,2.184,2.184,0,0,0-.147-.269l-.762-1.33a3.987,3.987,0,0,0-3.185-1.975,3.882,3.882,0,0,0-1.734-.957l-1.394-.368a1.947,1.947,0,0,0-.309-.076l-.891-.884a4.1,4.1,0,0,0-1.521-.941,4.005,4.005,0,0,0-3.457-1.995h-1.495a4.035,4.035,0,0,0-3.458,1.982,4,4,0,0,0-1.563,1.005l-1.015,1a.691.691,0,0,0-.094.03l-1.312.341a4.058,4.058,0,0,0-1.582.853h-.01a3.97,3.97,0,0,0-3.47,2.027l-.739,1.249a4.025,4.025,0,0,0-.538,2,4.068,4.068,0,0,0,.538,2,3.8,3.8,0,0,0-.068.764Z" fill="#f4f4f4"/>
  </g>
</svg>